
<svg xmlns="http://www.w3.org/2000/svg" version="1.1" xmlns:xlink="http://www.w3.org/1999/xlink" preserveAspectRatio="none" x="0px" y="0px" width="2560px" height="1440px" viewBox="0 0 2560 1440">
<defs>
<filter id="Filter_1" x="-20%" y="-31.44370833157951%" width="140%" height="162.88741666315903%" color-interpolation-filters="sRGB">
<feGaussianBlur in="SourceGraphic" stdDeviation="1.3333333333333333,85" result="result1"/>
</filter>

<g id="Layer1_0_FILL">
<path fill="#CCCCCC" stroke="none" d="
M 2619.55 1503.1
L 2619.55 -58 -28.95 -58 -28.95 1503.1 2619.55 1503.1 Z"/>
</g>

<g id="Symbol_7_0_Layer0_0_FILL">
<path fill="#FFB562" stroke="none" d="
M 2648.5 1561.1
L 2648.5 0 0 0 0 1561.1 2648.5 1561.1 Z"/>
</g>

<path id="Layer1_0_1_STROKES" stroke="#0000FF" stroke-width="1" stroke-linejoin="round" stroke-linecap="round" fill="none" d="
M -28.95 -58
L 2619.55 -58 2619.55 1503.1 -28.95 1503.1 -28.95 -58 Z"/>
</defs>

<g transform="matrix( 1, 0, 0, 1, 0,0) ">
<use xlink:href="#Layer1_0_FILL"/>

<use xlink:href="#Layer1_0_1_STROKES"/>
</g>

<g filter="url(#Filter_1)" transform="matrix( 1, 0, 0, 1, 0,0) ">
<g transform="matrix( 1, 0, 0, 0.7701873779296875, -28.95,482) ">
<g transform="matrix( 1, 0, 0, 1, 0,0) ">
<use xlink:href="#Symbol_7_0_Layer0_0_FILL"/>
</g>
</g>
</g>
</svg>
